<svg width="24" height="17" viewBox="0 0 24 17" fill="none" xmlns="http://www.w3.org/2000/svg">
<path d="M1.7594 13.822C3.52694 13.3603 5.2598 12.8684 7.01011 12.4626C9.64504 11.8545 12.0522 10.6715 14.5077 9.59121C15.8972 8.98121 17.3596 8.47753 18.8398 8.16908C19.8901 7.94852 21.0276 8.08714 22.1192 8.15558C22.81 8.20042 22.8293 8.31088 22.7474 9.09822C20.3922 8.61966 18.1077 8.91389 15.8808 9.77985C18.1553 9.21605 20.4335 8.80488 22.7611 9.58869C22.5679 11.0974 21.9236 12.316 20.8849 13.3139C19.4171 14.7219 17.6823 15.6426 15.6787 15.9096C13.0988 16.254 11.0891 15.1534 9.53537 13.1191C9.30736 12.82 9.09201 12.7193 8.73423 12.7633C7.31875 12.933 5.99 13.3526 4.72614 14.0184C4.15909 14.319 3.56873 14.5968 2.95782 14.7833C2.20022 15.0249 1.83304 14.7038 1.7594 13.822Z" fill="#F54748"/>
<path d="M11.084 10.5202C10.7964 9.79967 10.5375 8.78749 10.9867 7.93897C11.1488 7.63149 11.2984 7.54346 11.448 7.28337C11.7398 6.76926 11.8686 5.85542 10.9976 4.10962C11.2635 4.27199 11.6184 4.53945 11.8811 4.97242C12.1807 5.46534 12.1765 5.86435 12.2901 6.28702C12.4232 6.78737 12.7579 7.45507 13.6605 8.14709C13.5507 7.87706 13.427 7.49886 13.3693 7.03091C13.3148 6.5709 13.3408 6.17566 13.3835 5.89109C13.502 6.16865 13.6856 6.52036 13.9722 6.88048C14.1632 7.11966 14.3558 7.30955 14.529 7.45727C14.2809 7.14331 13.9459 6.64494 13.6994 5.96768C13.511 5.44976 13.2818 4.57728 13.4064 3.50538C13.5133 2.58777 13.8369 1.8937 14.067 1.48812C14.0738 1.82074 14.1308 2.45259 14.4997 3.10946C15.066 4.12243 15.9862 4.51817 16.2508 4.62876C16.9137 4.90514 17.0314 4.71854 18.3217 4.98732C19.3298 5.19602 19.834 5.30173 20.3146 5.66049C20.589 5.86317 21.234 6.4304 21.4973 7.74262C20.911 7.68969 20.1219 7.66338 19.1998 7.76479C18.168 7.87741 17.4036 8.10042 16.8873 8.25508C16.0969 8.49102 15.468 8.75815 14.2099 9.28971C13.4792 9.60023 12.9586 9.83986 12.0309 10.182C11.6355 10.3328 11.3073 10.4455 11.084 10.5202Z" fill="#FDC55E"/>
<path d="M17.2715 8.03657C17.2883 8.07896 17.8593 7.79447 18.6703 7.617C19.6351 7.40579 20.4872 7.44361 21.1166 7.53143C21.0871 7.08041 20.937 6.778 20.8413 6.62156C20.5909 6.20676 20.2375 5.9938 19.856 5.76664C19.5591 5.58754 19.2945 5.47694 19.114 5.40899C19.3643 5.57804 19.6772 5.82417 19.9895 6.16864C20.3137 6.52585 20.5321 6.87487 20.6774 7.15036C20.2624 7.11694 19.6529 7.11223 18.9518 7.28391C18.0025 7.52123 17.2516 7.98895 17.2715 8.03657Z" fill="white"/>
</svg>
